<svg  fill="none" xmlns="http://www.w3.org/2000/svg">
<g filter="url(#filter0_d_12_71)">
<path d="M25.5009 15.1875C21.4713 15.1875 18.1881 18.4705 18.1881 22.5C18.1881 26.5295 21.4713 29.8125 25.5009 29.8125C29.5306 29.8125 32.8138 26.5295 32.8138 22.5C32.8138 18.4705 29.5306 15.1875 25.5009 15.1875ZM44.2706 21.3193L37.0568 17.7164L39.6087 10.0687C39.9515 9.03281 38.9688 8.0502 37.9404 8.40059L30.2924 10.9523L26.6817 3.73125C26.1941 2.75625 24.8077 2.75625 24.3202 3.73125L20.7171 10.9447L13.0615 8.39297C12.0255 8.0502 11.0428 9.03281 11.3932 10.0611L13.9451 17.7088L6.73129 21.3193C5.75624 21.8068 5.75624 23.1932 6.73129 23.6807L13.9451 27.2836L11.3932 34.9389C11.0504 35.9748 12.0331 36.9574 13.0615 36.607L20.7095 34.0553L24.3126 41.2687C24.8001 42.2437 26.1865 42.2437 26.674 41.2687L30.2772 34.0553L37.9252 36.607C38.9612 36.9498 39.9438 35.9672 39.5934 34.9389L37.0415 27.2912L44.2554 23.6883C45.2457 23.1932 45.2457 21.8068 44.2706 21.3193ZM32.3948 29.3936C28.5937 33.1945 22.4082 33.1945 18.6071 29.3936C14.8059 25.5926 14.8059 19.4074 18.6071 15.6064C22.4082 11.8055 28.5937 11.8055 32.3948 15.6064C36.196 19.4074 36.196 25.5926 32.3948 29.3936Z" fill="#FC9449"/>
</g>
<defs>
<filter id="filter0_d_12_71" x="0" y="0" width="51" height="51" filterUnits="userSpaceOnUse" color-interpolation-filters="sRGB">
<feFlood flood-opacity="0" result="BackgroundImageFix"/>
<feColorMatrix in="SourceAlpha" type="matrix" values="0 0 0 0 0 0 0 0 0 0 0 0 0 0 0 0 0 0 127 0" result="hardAlpha"/>
<feOffset dy="3"/>
<feGaussianBlur stdDeviation="3"/>
<feComposite in2="hardAlpha" operator="out"/>
<feColorMatrix type="matrix" values="0 0 0 0 0.988235 0 0 0 0 0.580392 0 0 0 0 0.286275 0 0 0 0.4 0"/>
<feBlend mode="normal" in2="BackgroundImageFix" result="effect1_dropShadow_12_71"/>
<feBlend mode="normal" in="SourceGraphic" in2="effect1_dropShadow_12_71" result="shape"/>
</filter>
</defs>
</svg>
