<svg fill="none" xmlns="http://www.w3.org/2000/svg">
<path fill-rule="evenodd" clip-rule="evenodd" d="M9 0C4.02944 0 0 4.02944 0 9C0 13.9706 4.02944 18 9 18H123C127.971 18 132 13.9706 132 9C132 4.02944 127.971 0 123 0H9ZM0 53C0 48.0294 4.02944 44 9 44H123C127.971 44 132 48.0294 132 53C132 57.9706 127.971 62 123 62H9C4.02944 62 0 57.9706 0 53ZM0 97C0 92.0294 4.02944 88 9 88H112C116.971 88 121 92.0294 121 97C121 101.971 116.971 106 112 106H9C4.02944 106 0 101.971 0 97ZM0 75C0 70.0294 4.02944 66 9 66H71C75.9706 66 80 70.0294 80 75C80 79.9706 75.9706 84 71 84H9C4.02944 84 0 79.9706 0 75ZM9 22C4.02944 22 0 26.0294 0 31C0 35.9706 4.02944 40 9 40H71C75.9706 40 80 35.9706 80 31C80 26.0294 75.9706 22 71 22H9Z" fill="#9A9CA0"/>
</svg>
